<?xml version="1.0" standalone="no"?>
<!DOCTYPE svg PUBLIC "-//W3C//DTD SVG 20010904//EN"
 "http://www.w3.org/TR/2001/REC-SVG-20010904/DTD/svg10.dtd">
<svg version="1.0" xmlns="http://www.w3.org/2000/svg"
 width="144.000000pt" height="62.000000pt" viewBox="0 0 144.000000 62.000000"
 preserveAspectRatio="xMidYMid meet">

<g transform="translate(0.000000,62.000000) scale(0.100000,-0.100000)"
fill="#000000" stroke="none">
<path d="M225 543 c-18 -18 -16 -32 8 -47 21 -13 51 13 42 36 -10 24 -32 29
-50 11z"/>
<path d="M122 518 c-16 -16 -15 -33 2 -47 18 -15 46 -3 46 20 0 24 -33 42 -48
27z"/>
<path d="M332 518 c-17 -17 -15 -45 4 -52 19 -7 44 10 44 30 0 20 -34 36 -48
22z"/>
<path d="M60 428 c1 -35 48 -109 125 -195 48 -53 89 -109 93 -127 6 -24 14
-32 36 -34 51 -6 57 1 42 52 -8 24 -24 59 -36 76 l-22 31 49 52 c46 48 94 140
80 153 -15 16 -79 -20 -106 -59 -16 -23 -40 -52 -54 -65 l-24 -23 -47 52 c-25
28 -46 55 -46 61 0 9 -60 38 -80 38 -5 0 -10 -6 -10 -12z"/>
<path d="M520 286 c0 -147 -4 -166 -41 -178 -8 -3 -10 -14 -5 -31 9 -37 48
-36 87 2 l29 29 0 161 0 161 -35 0 -35 0 0 -144z"/>
<path d="M650 251 l0 -181 35 0 c21 0 35 5 35 13 0 6 1 86 1 177 l1 165 -36 3
-36 3 0 -180z"/>
<path d="M790 428 c-1 -2 -1 -82 -2 -178 l-1 -175 36 -3 37 -3 0 60 c0 60 0
61 28 61 23 0 35 -10 68 -57 l39 -58 66 -3 66 -3 38 131 c21 72 43 129 49 127
8 -3 35 -84 36 -109 0 -5 -11 -8 -24 -8 -24 0 -36 -16 -36 -51 0 -16 7 -19 44
-19 40 0 44 -2 52 -32 8 -29 14 -33 47 -36 25 -2 37 1 37 10 0 7 -24 87 -53
178 l-53 165 -51 3 -51 3 -46 -145 c-25 -79 -46 -149 -46 -155 0 -22 -18 -10
-42 27 l-26 38 24 27 c19 22 24 40 24 82 0 65 -14 99 -47 114 -20 9 -212 17
-213 9z m178 -73 c11 -11 4 -87 -9 -96 -8 -5 -33 -9 -56 -9 l-43 0 0 53 c0 30
2 56 5 59 6 6 96 1 103 -7z"/>
<path d="M200 401 c0 -6 10 -22 23 -37 l23 -27 22 28 c31 39 28 45 -23 45 -25
0 -45 -4 -45 -9z"/>
<path d="M162 187 c-20 -24 -43 -100 -33 -110 4 -4 24 -7 42 -5 30 3 34 7 42
42 8 34 7 41 -15 63 -21 20 -26 22 -36 10z"/>
</g>
</svg>
